<svg xmlns="http://www.w3.org/2000/svg" width="12" height="17" viewBox="0 0 12 17" id="lightbulb">
    <path fill="#00ABFF" fill-rule="nonzero" d="M3.429 16.15c0 .468.385.85.857.85h3.428a.856.856 0 0 0 .857-.85v-.85H3.43v.85zM6 0C2.691 0 0 2.669 0 5.95c0 2.023 1.02 3.8 2.571 4.879v1.921c0 .467.386.85.858.85H8.57a.856.856 0 0 0 .858-.85v-1.921C10.98 9.749 12 7.973 12 5.95 12 2.669 9.309 0 6 0zm2.443 9.435l-.729.51V11.9H4.286V9.945l-.729-.51A4.237 4.237 0 0 1 1.714 5.95C1.714 3.604 3.634 1.7 6 1.7c2.366 0 4.286 1.904 4.286 4.25a4.237 4.237 0 0 1-1.843 3.485z"/>
</svg>
