<svg width="12px" height="17px" viewBox="0 0 12 17" version="1.1" xmlns="http://www.w3.org/2000/svg" xmlns:xlink="http://www.w3.org/1999/xlink">
    <g id="C3-PPP_MobileV5" stroke="none" stroke-width="1" fill="none" fill-rule="evenodd">
        <g id="MO_Concept6_03" transform="translate(-326.000000, -226.000000)" fill="#00ABFF" fill-rule="nonzero">
            <g id="ic_lightbulb_outline_black_24px" transform="translate(326.000000, 226.000000)">
                <path d="M3.42857143,16.15 C3.42857143,16.6175 3.81428571,17 4.28571429,17 L7.71428571,17 C8.18571429,17 8.57142857,16.6175 8.57142857,16.15 L8.57142857,15.3 L3.42857143,15.3 L3.42857143,16.15 Z M6,0 C2.69142857,0 0,2.669 0,5.95 C0,7.973 1.02,9.7495 2.57142857,10.829 L2.57142857,12.75 C2.57142857,13.2175 2.95714286,13.6 3.42857143,13.6 L8.57142857,13.6 C9.04285714,13.6 9.42857143,13.2175 9.42857143,12.75 L9.42857143,10.829 C10.98,9.7495 12,7.973 12,5.95 C12,2.669 9.30857143,0 6,0 Z M8.44285714,9.435 L7.71428571,9.945 L7.71428571,11.9 L4.28571429,11.9 L4.28571429,9.945 L3.55714286,9.435 C2.4,8.636 1.71428571,7.3355 1.71428571,5.95 C1.71428571,3.604 3.63428571,1.7 6,1.7 C8.36571429,1.7 10.2857143,3.604 10.2857143,5.95 C10.2857143,7.3355 9.6,8.636 8.44285714,9.435 Z" id="Shape"></path>
            </g>
        </g>
    </g>
</svg>
